<svg width="10" height="10" viewBox="0 0 10 10" fill="none" xmlns="http://www.w3.org/2000/svg">
<path fill-rule="evenodd" clip-rule="evenodd" d="M3.95836 6.97917C2.29 6.97917 0.937531 5.62669 0.937531 3.95833C0.937531 2.28997 2.29 0.9375 3.95836 0.9375C5.62672 0.9375 6.9792 2.28997 6.9792 3.95833C6.9792 4.67995 6.72617 5.34248 6.304 5.86202L8.55434 8.11236C8.67638 8.2344 8.67638 8.43227 8.55434 8.5543C8.4323 8.67634 8.23443 8.67634 8.1124 8.5543L5.86206 6.30396C5.34251 6.72614 4.67999 6.97917 3.95836 6.97917ZM3.95836 6.35417C5.28155 6.35417 6.3542 5.28152 6.3542 3.95833C6.3542 2.63515 5.28155 1.5625 3.95836 1.5625C2.63518 1.5625 1.56253 2.63515 1.56253 3.95833C1.56253 5.28152 2.63518 6.35417 3.95836 6.35417Z" fill="white" fill-opacity="0.6"/>
</svg>
