<svg width="80" height="14" viewBox="0 0 32 6" fill="none" xmlns="http://www.w3.org/2000/svg">
<path d="M3.00003 0L3.67357 2.07295H5.8532L4.08984 3.3541L4.76339 5.42705L3.00003 4.1459L1.23667 5.42705L1.91022 3.3541L0.146861 2.07295H2.32649L3.00003 0Z" fill="#FCBC69"/>
<path d="M9.50003 0L10.1736 2.07295H12.3532L10.5898 3.3541L11.2634 5.42705L9.50003 4.1459L7.73667 5.42705L8.41022 3.3541L6.64686 2.07295H8.82649L9.50003 0Z" fill="#FCBC69"/>
<path d="M16 0L16.6736 2.07295H18.8532L17.0898 3.3541L17.7634 5.42705L16 4.1459L14.2367 5.42705L14.9102 3.3541L13.1469 2.07295H15.3265L16 0Z" fill="#FCBC69"/>
<path d="M22.5 0L23.1736 2.07295H25.3532L23.5898 3.3541L24.2634 5.42705L22.5 4.1459L20.7367 5.42705L21.4102 3.3541L19.6469 2.07295H21.8265L22.5 0Z" fill="#FCBC69"/>
<path d="M29 0L29.6736 2.07295H31.8532L30.0898 3.3541L30.7634 5.42705L29 4.1459L27.2367 5.42705L27.9102 3.3541L26.1469 2.07295H28.3265L29 0Z" fill="#CCC8C8"/>
</svg>
