<svg width="10" height="10" viewBox="0 0 10 10" fill="none" xmlns="http://www.w3.org/2000/svg">
<path d="M6.25003 0.3125C6.25003 0.895182 6.35745 1.43229 6.5723 1.92383C6.78714 2.41536 7.09638 2.86784 7.50003 3.28125C7.90368 3.69466 8.21292 4.14714 8.42776 4.63867C8.64261 5.13021 8.75003 5.66732 8.75003 6.25C8.75003 6.59505 8.70609 6.92708 8.61819 7.24609C8.5303 7.5651 8.40335 7.86296 8.23734 8.13965C8.07132 8.41634 7.87601 8.67025 7.6514 8.90137C7.42679 9.13249 7.17451 9.3278 6.89456 9.4873C6.61461 9.64681 6.31513 9.77214 5.99612 9.86328C5.67711 9.95443 5.34508 10 5.00003 10C4.65498 10 4.32295 9.95605 4.00394 9.86816C3.68493 9.78027 3.38707 9.65332 3.11038 9.4873C2.83369 9.32129 2.57978 9.12598 2.34866 8.90137C2.11754 8.67676 1.92223 8.42448 1.76273 8.14453C1.60322 7.86458 1.4779 7.5651 1.38675 7.24609C1.2956 6.92708 1.25003 6.59505 1.25003 6.25C1.25003 5.97656 1.27933 5.70801 1.33792 5.44434C1.39651 5.18066 1.48115 4.92839 1.59183 4.6875C1.7025 4.44661 1.83922 4.21712 2.00198 3.99902C2.16474 3.78092 2.34866 3.58398 2.55374 3.4082C2.57653 3.5319 2.60745 3.65885 2.64651 3.78906C2.68558 3.91927 2.73115 4.04948 2.78323 4.17969C2.83532 4.3099 2.89717 4.43359 2.96878 4.55078C3.0404 4.66797 3.11526 4.77702 3.19339 4.87793C3.25849 4.95931 3.34313 5 3.4473 5C3.53519 5 3.60843 4.96908 3.66702 4.90723C3.72562 4.84538 3.75654 4.77051 3.7598 4.68262C3.7598 4.64681 3.75491 4.61426 3.74515 4.58496C3.73538 4.55566 3.71911 4.52637 3.69632 4.49707C3.60517 4.36361 3.52542 4.23177 3.45706 4.10156C3.3887 3.97135 3.32848 3.83789 3.2764 3.70117C3.22431 3.56445 3.18688 3.42285 3.16409 3.27637C3.14131 3.12988 3.12829 2.97526 3.12503 2.8125C3.12503 2.42513 3.19827 2.06055 3.34476 1.71875C3.49124 1.37695 3.69306 1.0791 3.95023 0.825195C4.20739 0.571289 4.50524 0.371094 4.84378 0.224609C5.18232 0.078125 5.54691 0.00325521 5.93753 0H6.25003V0.3125ZM5.00003 9.375C5.43297 9.375 5.83825 9.29362 6.21585 9.13086C6.59345 8.9681 6.92549 8.74512 7.21194 8.46191C7.4984 8.17871 7.72138 7.84831 7.88089 7.4707C8.0404 7.0931 8.12178 6.6862 8.12503 6.25C8.12503 5.75846 8.03388 5.30111 7.85159 4.87793C7.6693 4.45475 7.40563 4.07064 7.06058 3.72559C6.6374 3.29915 6.30537 2.82878 6.06448 2.31445C5.8236 1.80013 5.68037 1.24349 5.6348 0.644531C5.36461 0.680339 5.11559 0.761719 4.88773 0.888672C4.65986 1.01562 4.45967 1.17676 4.28714 1.37207C4.11461 1.56738 3.98278 1.78711 3.89163 2.03125C3.80049 2.27539 3.75329 2.53581 3.75003 2.8125C3.75003 3.06641 3.78747 3.2959 3.86234 3.50098C3.93721 3.70605 4.04788 3.91113 4.19437 4.11621C4.25622 4.20085 4.30342 4.28874 4.33597 4.37988C4.36852 4.47103 4.38642 4.57194 4.38968 4.68262C4.38968 4.81283 4.36526 4.9349 4.31644 5.04883C4.26761 5.16276 4.19925 5.26204 4.11136 5.34668C4.02347 5.43131 3.92418 5.49967 3.81351 5.55176C3.70283 5.60384 3.58076 5.62826 3.4473 5.625C3.29756 5.625 3.16572 5.59733 3.05179 5.54199C2.93786 5.48665 2.83694 5.41178 2.74905 5.31738C2.66116 5.22298 2.58304 5.11719 2.51468 5C2.44632 4.88281 2.38122 4.76562 2.31937 4.64844C2.16963 4.88607 2.05895 5.1416 1.98734 5.41504C1.91572 5.68848 1.87829 5.9668 1.87503 6.25C1.87503 6.68294 1.95641 7.08822 2.11917 7.46582C2.28193 7.84342 2.50491 8.17546 2.78812 8.46191C3.07132 8.74837 3.40172 8.97135 3.77933 9.13086C4.15693 9.29036 4.56383 9.37175 5.00003 9.375Z" fill="white"/>
</svg>
